:version 1.10
:name ASF
:units
  mass 1
  length 1
  angle deg
:documentation
  ASF file generated by Kaydara
:root
  axis xyz
  order  tx ty tz rx ry rz
  position 0 0 0
  orientation 0 0 0
:bonedata
  begin
    id 1
    name SpineDummy
    direction 0.999998 -0.00179978 1.38929e-006
    length 3.60008
    axis 0 0 0 xyz
  end
  begin
    id 2
    name Spine
    direction 0.964365 0.262802 0.0305839
    length 8.13928
    axis 1.33928 -1.75354 15.2838 xyz
    dof rx ry rz
  end
  begin
    id 3
    name Spine1
    direction 0.811168 0.572065 0.12144
    length 7.14954
    axis 2.2224 -6.9761 35.2157 xyz
    dof rx ry rz
  end
  begin
    id 4
    name Neck
    direction 0 0 0
    length 0
    axis 2.2224 -6.9761 35.2157 xyz
    dof rx ry rz
  end
  begin
    id 5
    name HeadDummy
    direction 0.810939 0.572387 0.121455
    length 3.55534
    axis 2.2224 -6.9761 35.2157 xyz
  end
  begin
    id 6
    name Head
    direction 0.998226 -0.000232542 0.0595419
    length 7.35666
    axis -3.03688 -3.41352 -0.0133467 xyz
    dof rx ry rz
  end
  begin
    id 7
    name R_ClavicleDummy
    direction 0.531669 -0.194489 -0.824319
    length 2.49392
    axis 2.2224 -6.9761 35.2157 xyz
  end
  begin
    id 8
    name R_Clavicle
    direction -0.155119 0.0480802 -0.986725
    length 4.485
    axis -54.2764 80.6538 162.779 xyz
    dof rx ry rz
  end
  begin
    id 9
    name R_UpperArm
    direction -0.955567 0.200068 -0.216484
    length 10.1122
    axis -72.9943 12.5026 168.175 xyz
    dof rx ry rz
  end
  begin
    id 10
    name R_Forearm
    direction -0.61433 0.385743 0.688332
    length 9.39148
    axis -117.015 -43.4982 147.875 xyz
    dof rx ry rz
  end
  begin
    id 11
    name R_Hand
    direction -0.699429 0.0170333 0.714499
    length 3.66324
    axis -45.0303 -36.7097 175.478 xyz
    dof rx ry rz
  end
  begin
    id 12
    name L_ClavicleDummy
    direction 0.40287 -0.36502 0.839319
    length 2.49392
    axis 2.2224 -6.9761 35.2157 xyz
  end
  begin
    id 13
    name L_Clavicle
    direction -0.231271 -0.0726419 0.970174
    length 4.485
    axis 18.4357 -75.9711 -162.563 xyz
    dof rx ry rz
  end
  begin
    id 14
    name L_UpperArm
    direction -0.917494 0.144359 0.370629
    length 10.1122
    axis 56.0417 -21.7544 171.058 xyz
    dof rx ry rz
  end
  begin
    id 15
    name L_Forearm
    direction -0.496786 0.615074 -0.612281
    length 9.39148
    axis 89.8094 37.7546 128.927 xyz
    dof rx ry rz
  end
  begin
    id 16
    name L_Hand
    direction -0.409932 0.64962 -0.640274
    length 3.66324
    axis -0.424369 32.133 128.52 xyz
    dof rx ry rz
  end
  begin
    id 17
    name L_ThighDummy
    direction -1.84081e-006 1.87549e-006 1
    length 3.13049
    axis 0 0 0 xyz
  end
  begin
    id 18
    name L_Thigh
    direction -0.947739 0.307978 0.083308
    length 17.9961
    axis 173.219 -4.77873 161.998 xyz
    dof rx ry rz
  end
  begin
    id 19
    name L_Calf
    direction -0.728814 -0.684427 0.0197583
    length 13.3367
    axis 167.331 -1.13214 -136.799 xyz
    dof rx ry rz
  end
  begin
    id 20
    name L_Foot
    direction -0.9028 0.418719 0.0981191
    length 5.8674
    axis 163.436 11.5135 -155.37 xyz
    dof rx ry rz
  end
  begin
    id 21
    name L_Toe0
    direction -0.35341 0.886259 0.299411
    length 4.75286
    axis 169.316 -17.4222 111.74 xyz
    dof rx ry rz
  end
  begin
    id 22
    name R_ThighDummy
    direction 9.32778e-007 -8.82053e-007 -1
    length 3.13049
    axis 0 0 0 xyz
  end
  begin
    id 23
    name R_Thigh
    direction -0.925064 0.37528 -0.0585023
    length 17.9961
    axis -178.698 3.35385 157.919 xyz
    dof rx ry rz
  end
  begin
    id 24
    name R_Calf
    direction -0.68969 -0.718776 -0.0876886
    length 13.3367
    axis -160.504 5.03065 -133.817 xyz
    dof rx ry rz
  end
  begin
    id 25
    name R_Foot
    direction -0.857405 0.418858 -0.299022
    length 5.8674
    axis -161.328 4.38911 -154.413 xyz
    dof rx ry rz
  end
  begin
    id 26
    name R_Toe0
    direction -0.100745 0.952789 -0.286433
    length 4.75286
    axis 171.683 16.6445 96.0359 xyz
    dof rx ry rz
  end
:hierarchy
  begin
    root SpineDummy L_ThighDummy R_ThighDummy
    SpineDummy Spine
    Spine Spine1
    Spine1 Neck
    Neck HeadDummy R_ClavicleDummy L_ClavicleDummy
    HeadDummy Head
    R_ClavicleDummy R_Clavicle
    R_Clavicle R_UpperArm
    R_UpperArm R_Forearm
    R_Forearm R_Hand
    L_ClavicleDummy L_Clavicle
    L_Clavicle L_UpperArm
    L_UpperArm L_Forearm
    L_Forearm L_Hand
    L_ThighDummy L_Thigh
    L_Thigh L_Calf
    L_Calf L_Foot
    L_Foot L_Toe0
    R_ThighDummy R_Thigh
    R_Thigh R_Calf
    R_Calf R_Foot
    R_Foot R_Toe0
  end

:SAMPLES-PER-SECOND 30
:FULLY-SPECIFIED
:DEGREES
81
root  -3.11556 31.1776 -14.2666 86.198 9.94871 90.9093
Spine  -5.77892 -8.75185 -9.83381
Spine1  -2.96389 23.12 9.12528
Neck  3.97569e-016 0 -2.38542e-015
Head  28.6116 -12.4722 11.1485
R_Clavicle  0.396546 -20.0868 0.838266
R_UpperArm  14.0376 0.963379 30.9985
R_Forearm  30.1758 -19.6846 17.2631
R_Hand  -1.41187 8.91469 -22.0273
L_Clavicle  -0.541368 17.7037 -2.48261
L_UpperArm  -11.7948 1.55697 12.0258
L_Forearm  -12.2495 26.5475 34.8097
L_Hand  -0.166939 -2.60549 -6.67432
L_Thigh  -3.67285 -1.08616 -26.5034
L_Calf  -6.22473 -1.8409 13.3175
L_Foot  4.41526 2.46727 16.11
L_Toe0  -0.240399 -0.147438 6.57071
R_Thigh  -0.688898 0.00746824 -0.946999
R_Calf  -4.60607 6.02692 19.2099
R_Foot  0.406545 0.120356 -3.3042
R_Toe0  -1.78853 -0.272788 -17.3235
82
root  -3.42774 30.9727 -13.4686 85.9686 9.85055 90.0796
Spine  -5.70888 -5.55561 -9.98587
Spine1  -2.73779 20.8341 10.5678
Neck  3.97569e-016 0 -2.38542e-015
Head  27.7309 -12.5936 11.2813
R_Clavicle  0.382966 -19.6306 0.509815
R_UpperArm  14.6786 1.1107 27.2941
R_Forearm  27.9712 -16.5343 14.2484
R_Hand  -1.41234 8.40421 -22.0676
L_Clavicle  -0.534581 17.4564 -2.94535
L_UpperArm  -11.8112 3.88395 14.0129
L_Forearm  -17.1411 26.6843 34.946
L_Hand  -0.180701 -2.73575 -7.50764
L_Thigh  -2.98387 0.427887 -21.4484
L_Calf  -4.65464 -0.210819 1.2368
L_Foot  1.6011 0.495705 7.31549
L_Toe0  -0.493688 -0.247485 18.3174
R_Thigh  -0.0334845 1.23908 -1.26419
R_Calf  -4.61706 5.21438 16.6035
R_Foot  0.12248 0.311726 -0.287251
R_Toe0  -1.78853 -0.272788 -17.3235
83
root  -3.76864 30.7177 -12.6665 85.8589 10.0365 88.6862
Spine  -5.50631 -1.55905 -10.04
Spine1  -2.52152 18.0387 11.9158
Neck  3.97569e-016 0 -2.38542e-015
Head  26.5807 -12.6185 11.8699
R_Clavicle  0.375252 -18.869 0.63376
R_UpperArm  14.2298 1.54966 23.1026
R_Forearm  25.2509 -12.6697 10.7312
R_Hand  -1.32476 7.87229 -21.4201
L_Clavicle  -0.556821 17.7548 -3.27383
L_UpperArm  -9.91336 5.51924 16.1777
L_Forearm  -18.0094 26.4137 34.6598
L_Hand  -0.172062 -2.10779 -5.73914
L_Thigh  -2.36267 2.3271 -16.082
L_Calf  -4.61219 1.3742 -10.4132
L_Foot  0.896212 4.22228 -0.61678
L_Toe0  -5.36121 1.66594 16.5408
R_Thigh  1.01062 2.90629 -2.13936
R_Calf  -4.5999 4.3957 14.0217
R_Foot  -0.171738 0.531448 2.93919
R_Toe0  -1.78853 -0.272788 -17.3235
84
root  -4.08308 30.5368 -11.8151 85.5885 10.9706 87.8144
Spine  -5.02927 1.32201 -9.75967
Spine1  -2.04191 15.411 13.6062
Neck  3.97569e-016 0 -2.38542e-015
Head  25.6955 -12.657 11.7684
R_Clavicle  0.363013 -17.5081 0.783334
R_UpperArm  12.7741 2.77519 18.1869
R_Forearm  23.0768 -9.22465 7.7192
R_Hand  -1.224 7.82586 -20.6296
L_Clavicle  -0.591515 18.244 -3.54255
L_UpperArm  -8.69609 7.27407 18.3165
L_Forearm  -14.1297 25.9503 34.1564
L_Hand  -0.144766 -0.946695 -3.64138
L_Thigh  -2.17576 3.9397 -11.9468
L_Calf  -4.67437 2.53137 -19.1575
L_Foot  0.27272 6.27235 -5.02784
L_Toe0  -7.63798 1.59278 4.92129
R_Thigh  1.69365 3.94125 -4.05661
R_Calf  -4.73518 3.76837 12.0533
R_Foot  -0.461234 0.66545 5.92031
R_Toe0  -1.78853 -0.272788 -17.3235
85
root  -4.33856 30.5804 -10.9 85.4913 11.9778 87.9555
Spine  -4.38989 2.53722 -9.76408
Spine1  -1.44764 13.1539 15.0253
Neck  3.97569e-016 0 -2.38542e-015
Head  24.8745 -12.7361 11.7504
R_Clavicle  0.341772 -15.8296 0.779191
R_UpperArm  10.7847 4.24063 13.3185
R_Forearm  22.1263 -7.20463 5.99236
R_Hand  -1.20807 8.35103 -20.5283
L_Clavicle  -0.634524 18.838 -3.77097
L_UpperArm  -7.28105 9.21149 20.3864
L_Forearm  -9.8991 26.1707 34.3732
L_Hand  -0.15428 -0.124053 -3.23141
L_Thigh  -2.54928 4.6494 -8.93905
L_Calf  -4.9898 3.12619 -23.8336
L_Foot  0.409584 6.20365 -4.38743
L_Toe0  -3.41995 0.130777 -4.51993
R_Thigh  1.79598 3.93892 -6.72481
R_Calf  -4.62277 3.63932 11.6495
R_Foot  -0.657441 0.777252 8.02656
R_Toe0  -1.78853 -0.272788 -17.3235
86
root  -4.54464 30.8008 -9.95592 86.0115 12.2649 88.5332
Spine  -3.73061 3.32497 -10.4508
Spine1  -1.03496 10.9146 15.1628
Neck  3.97569e-016 0 -2.38542e-015
Head  23.6699 -12.7895 13.214
R_Clavicle  0.332365 -14.6501 0.85505
R_UpperArm  8.39471 5.44962 9.52474
R_Forearm  21.9748 -7.18186 5.97359
R_Hand  -1.28613 8.98458 -21.1114
L_Clavicle  -0.691725 19.6711 -3.86923
L_UpperArm  -5.66329 10.9023 22.3889
L_Forearm  -7.83557 27.9595 35.6171
L_Hand  -0.164016 -0.298895 -3.54775
L_Thigh  -2.75067 4.63943 -5.97217
L_Calf  -4.81509 3.21121 -24.5356
L_Foot  0.977957 6.14252 -2.09525
L_Toe0  0.87127 0.0161511 -6.34667
R_Thigh  1.40267 3.7098 -9.44382
R_Calf  -3.6804 3.97147 12.7165
R_Foot  -0.641986 1.19806 9.29925
R_Toe0  -1.78853 -0.272788 -17.3235
87
root  -4.718 31.1611 -9.01273 87.2085 11.9273 89.0767
Spine  -2.98226 4.50701 -11.3674
Spine1  -0.812999 8.40472 13.8238
Neck  3.97569e-016 0 -2.38542e-015
Head  21.6032 -12.5957 16.4869
R_Clavicle  0.345076 -14.1234 1.10762
R_UpperArm  6.01735 6.22877 7.21742
R_Forearm  21.8496 -8.97035 7.502
R_Hand  -1.33602 9.32467 -21.4622
L_Clavicle  -0.738353 20.4133 -3.81699
L_UpperArm  -7.4875 12.5668 24.2146
L_Forearm  -4.80648 31.6333 37.1044
L_Hand  -0.117044 -1.01657 -3.00421
L_Thigh  -2.32596 4.08817 -2.91604
L_Calf  -4.24678 2.84936 -21.6866
L_Foot  1.35128 6.97904 -1.37911
L_Toe0  0.505156 0.0344479 -6.1361
R_Thigh  0.840801 3.66888 -12.3343
R_Calf  -2.01825 4.7809 15.316
R_Foot  -0.470913 1.75439 9.67862
R_Toe0  -1.78853 -0.272788 -17.3235
88
root  -4.85752 31.6354 -8.08502 88.746 11.3639 89.6488
Spine  -1.98456 5.86956 -12.0804
Spine1  -0.465246 5.59531 11.6191
Neck  3.97569e-016 0 -2.38542e-015
Head  18.3305 -11.8784 20.8191
R_Clavicle  0.352737 -13.6643 1.25955
R_UpperArm  4.37057 6.5011 6.41108
R_Forearm  21.7332 -11.797 9.96108
R_Hand  -1.2757 9.25805 -21.0367
L_Clavicle  -0.747395 20.5805 -3.77072
L_UpperArm  -12.4579 14.6584 25.9304
L_Forearm  0.423177 35.3875 38.7836
L_Hand  -0.0563389 -1.56424 -1.72297
L_Thigh  -1.80833 3.09313 -0.498918
L_Calf  -3.61095 2.05753 -15.6064
L_Foot  1.44402 7.6747 -1.63801
L_Toe0  0.505156 0.0344906 -6.1361
R_Thigh  0.844346 3.36408 -15.5675
R_Calf  -0.554806 6.0354 19.4049
R_Foot  -0.377536 1.86026 9.17357
R_Toe0  -1.78853 -0.272788 -17.3235
89
root  -4.95843 32.0979 -7.18092 90.0732 10.4843 90.1168
Spine  -0.672869 7.37368 -12.7605
Spine1  0.294455 2.54856 9.11638
Neck  3.97569e-016 0 -2.38542e-015
Head  14.1984 -10.5864 25.1347
R_Clavicle  0.342752 -13.2601 1.17796
R_UpperArm  3.02553 6.50505 6.95292
R_Forearm  22.4443 -15.0229 12.8546
R_Hand  -1.17407 8.88919 -20.2939
L_Clavicle  -0.727822 20.2726 -3.78238
L_UpperArm  -16.3109 16.8136 27.7804
L_Forearm  4.75612 37.5259 40.4147
L_Hand  -0.0191294 -1.70953 -0.713027
L_Thigh  -2.04507 2.22628 0.967956
L_Calf  -2.17918 0.839525 -6.5793
L_Foot  1.50015 7.70974 -1.45744
L_Toe0  0.505155 0.0345842 -6.1361
R_Thigh  1.95244 2.75154 -18.5602
R_Calf  -0.134391 7.43165 24.109
R_Foot  -0.492517 1.31219 8.31701
R_Toe0  -1.78853 -0.272788 -17.3235
90
root  -5.03803 32.4675 -6.30662 90.8924 9.23708 90.3493
Spine  0.903018 9.07908 -13.4091
Spine1  1.42176 -0.71292 6.61399
Neck  3.97569e-016 0 -2.38542e-015
Head  10.1958 -9.0201 28.3299
R_Clavicle  0.34305 -13.3913 1.16622
R_UpperArm  0.507133 6.75063 8.26647
R_Forearm  24.6025 -18.2961 15.9386
R_Hand  -1.10977 8.51968 -19.7952
L_Clavicle  -0.701111 19.912 -3.69284
L_UpperArm  -17.5513 18.2493 29.7208
L_Forearm  6.48907 38.3729 41.3038
L_Hand  -0.00468567 -1.52913 -0.267842
L_Thigh  -3.53252 1.88618 1.6055
L_Calf  0.513857 -0.742491 4.9495
L_Foot  1.4528 7.80204 -1.71193
L_Toe0  0.505154 0.0347211 -6.13609
R_Thigh  3.6769 2.20869 -21.0027
R_Calf  -0.601946 8.74336 28.7382
R_Foot  -0.723288 0.423736 7.47598
R_Toe0  -1.78853 -0.272788 -17.3235
